<?xml version="1.0" encoding="UTF-8"?>
<svg id="Layer_1" data-name="Layer 1" xmlns="http://www.w3.org/2000/svg" viewBox="0 0 924 902">
  <defs>
    <style>
      .cls-1 {
        fill: #c45843;
      }

      .cls-2 {
        fill: #facf13;
      }

      .cls-3 {
        fill: #1c1713;
      }

      .cls-4 {
        fill: #ee2a7b;
      }

      .cls-5 {
        fill: #e45833;
      }

      .cls-6 {
        fill: #fcfcfc;
      }
    </style>
  </defs>
  <path class="cls-6" d="M924,0v902H0V0h924ZM792.66,793.66c108.82-87.76,143.15-237.98,119.58-370.4-5.13-28.84-14.19-71.76-39.3-89.7-7.94-5.67-25.81-5.78-35.46-4.59-26.57,3.28-51.87,36.46-74.96,50.04-43.51,25.59-105.14,25.83-154,21.98-5.06-.4-21.29,1.44-24.09-2.97-.87-1.37,1.62-5.32,2.39-6.72,34.89-63.31,50.44-113.96,39.14-186.75C603.28,58.48,474.19-19.01,332.56,11.06c-106.08,22.52-170.91,100.69-183.59,206.41-.56,4.68.6,9.93-.21,14.79-3.35,20.21-21.62,24.24-39.3,22.78-25.11-2.07-50.04-11.19-75.99-8.07-8.68,1.04-21.38,9.23-22.49,18.51-3.62,30.14,15.29,50.03,38.7,65.35,5.07,3.32,12.27,4.6,15.78,10.22,3.16,5.07.76,12.57,1.61,18.39,1.64,11.31,15.27,25.54,26.68,27.32,30.41,4.75,58.76,6.02,87.95,19.05,2.45,1.09,6.41,2.82,3.3,5.69-11.55,5.63-19.75,14.79-28.97,23.03-27.1,24.2-48.61,53.41-63.9,87.1-58.85,129.72,8.09,268.43,132.19,326.55,75.62,35.42,176.43,48.63,259.22,45.86,8.21-.27,18.2-2.97,25.01-3.08,25.55-.4,47.58-3.4,72.83-8.09,75.3-14,151.2-40.77,211.28-89.22Z"/>
  <path class="cls-3" d="M792.66,793.66c-60.08,48.45-135.98,75.22-211.28,89.22-25.24,4.69-47.27,7.69-72.83,8.09-6.81.11-16.8,2.8-25.01,3.08-82.79,2.77-183.6-10.45-259.22-45.86-124.1-58.12-191.04-196.83-132.19-326.55,15.29-33.69,36.8-62.9,63.9-87.1,9.22-8.23,17.42-17.4,28.97-23.03,3.11-2.87-.85-4.6-3.3-5.69-29.2-13.02-57.55-14.29-87.95-19.05-11.41-1.78-25.04-16.01-26.68-27.32-.85-5.83,1.56-13.33-1.61-18.39-3.51-5.62-10.71-6.9-15.78-10.22-23.41-15.32-42.32-35.21-38.7-65.35,1.12-9.28,13.82-17.46,22.49-18.51,25.95-3.12,50.88,6,75.99,8.07,17.69,1.46,35.96-2.57,39.3-22.78.81-4.86-.35-10.11.21-14.79,12.68-105.72,77.51-183.89,183.59-206.41,141.64-30.06,270.72,47.42,293.39,193.49,11.3,72.8-4.26,123.45-39.14,186.75-.77,1.4-3.26,5.34-2.39,6.72,2.8,4.41,19.03,2.57,24.09,2.97,48.86,3.85,110.49,3.61,154-21.98,23.09-13.58,48.4-46.76,74.96-50.04,9.65-1.19,27.52-1.09,35.46,4.59,25.11,17.94,34.17,60.86,39.3,89.7,23.57,132.42-10.76,282.64-119.58,370.4ZM688,425c-23.9-.16-46.47,3.88-71.49,1.99-15.36-1.16-31.56-5.81-46.13-6.86-7.94-.57-10.35.79-16.71,5.04-5.18,3.46-10.53,9.4-15.51,12.76-13.21,8.93-35.05,18.27-50.53,22.19-5.78,1.46-37.51,7.6-40.21,3.9-.94-1.28,3.56-17.3,5.59-18.52,65.98-13.68,115.54-50.52,138-115,38.22-109.71-.36-240.92-113.77-285.27C360.59-.36,221.35,50.55,183.3,173.8c-2.31,7.49-9.27,32.77-6.63,38.98,1.24,2.92,14.79,2.78,18.69,3.37,33.17,4.96,49.41,14.97,72.16,38.84,5.8,6.09,7.11,9.77,14.49,15.01.45.74.16,1.97,1.44,3.06.87.75,2.05.62,2.56.94,12.05,16.94,31.66,19.31,39.76,38.74,4.45,10.66,6.27,22.8,7.24,34.26-.07.99.08,2.01,0,3-1.53,18.1-4.13,35.11-15.57,49.93-3.72,4.82-10.1,8.37-12.43,14.07-.31.09-.69-.08-1,0-3.2.8-3.45.02-4,3-23.88,8.19-38.34,14.67-64.78,7.28-4.43-1.24-16.72-7.69-19.48-7.13-1.76.35-8.02,4.71-10.05,6.04-42.11,27.57-80.54,76.8-98.16,124.84-33.85,92.26,3.97,193.91,81.75,250.2,131.51,95.17,388.3,86.66,528.74,14.3,38.72-19.95,105.53-68.57,121.98-109.52,3.99-1.91,9.67-12.68,12.19-17.31,43.53-80.11,58.11-209.95,29.27-296.65-3.46-10.4-14.21-37.81-26.01-39.99-5.8-1.07-18.22,1.12-22.83,4.88-1.04.85-.52,1.13-.62,2.08-8.74,1.78-28.71,20.52-34,28-6.87,2.31-18.41,12.86-26.33,17.17-25.13,13.68-53.95,18.22-81.67,23.83-.67,0-1.33,0-2,0ZM250,268c-5.21-5.65-10.09-12.61-16.36-17.6-12.88-10.26-44.68-26.74-60.89-20.15-3.78,1.54-8.79,18.8-12.11,23.89-24.61,37.7-78.43,11.28-113.14,12.07-26.35.6-12.47,20.64-1.54,31.31,2.58,2.52,21.96,17.72,24.04,15.48,2.59-2.79-7.57-9.35-9.58-11.44s-4.75-4.28-4.41-7.55c1.29-1.25,18.96,7.19,21.86,8.63,36.75,18.31,64.19,40.18,106.91,47.09,31.57,5.1,83.92-1.32,107.72-24.73,1.8-1.77,3.97-4.63,3.34-7.23-1.23-5.07-18.78-19.09-23.48-24.12-7.69-8.22-14.83-17.49-22.35-25.65ZM307.62,377.64c5.63-11.87,7.24-29.45,1.88-41.64-2.61-5.93-4.82-4.21-8.97-.97-41.45,32.29-51.52,48.86-107.72,28.86-28.19-10.03-47-20.29-79.26-20.94-3.79-.08-23.46.16-25.06,2.04-2.85,3.35-1.71,14.1,2.91,16.11,5.24,2.27,18.58.45,25.14.86,19.17,1.21,41.34,7.39,58.82,15.18,15.08,6.73,28.01,16.61,43.95,22.05,29.22,9.96,73.01,10.74,88.31-21.55Z"/>
  <path class="cls-4" d="M282,270c-1.44-2.35-1.24-4.57-1.47-4.98-.85-1.48-6.98-5.92-8.18-7.36-1.44-1.72-1.7-3.97-2.76-5.28-.81-1-5.14-4.34-5.29-4.66-.56-1.26-.07-3.45-.32-3.7-.35-.36-2.67.42-3.76-.22-.57-.33-.73-2.22-1.61-2.88-1.38-1.03-3.33-.59-4.28-1.28-1.88-1.37-5.25-6.55-7.09-7.59-4.94-2.8-14.67-8.72-18.91-10.39-6.68-2.64-15.82-4.31-23.76-5.74s-14.9-1.98-23-3.03c-8.62-1.12.56-14.22-1.56-20.22,4.02-7.07,4.44-15.09,7.65-23.01,5.6-13.84,12.29-32.66,20.62-45.39,4.44-6.79,5.94-3.47,10.01-14.04.38-.98,12.43-12.23,14.41-14.21,12.13-12.16,19.08-16.69,32.91-26.45,1.94-1.37,5.08-6.23,6.7-7.26,2.2-1.4,7.81-2.67,10.41-4.04,1.38-.72,3.36-4.12,3.99-4.24,4.93-.93,3.44.31,8.01-2.01,7.53-3.82,14.16-6.79,21.61-9.69,6.58-2.56,8.35-1.25,15.11-2.4,4.5-.77,12.68-5.14,16.31-5.72,4.19-.67,13.68.52,18.81-.14,1.91-.25,1.35-2.1,2-2.11,12.27-.24,25.47,1.13,37.93,1.12,3.12,0,6.17-1.42,9.04-1.2,1.82.14,1.34,1.9,2.15,2.09,5.14,1.21,12.56.56,18.75,2.07,8.41,2.04,12.61,3.05,21.09,4.13,1.64.21,7.98,4.28,10.48,5.3s11.46,2.24,11.92,2.65c.32.29-.35,2.22.65,2.97,1.67,1.25,4.94.44,6.69.96s14.16,8.02,17.99,9.98c.64.33.61,1.77,1.43,1.95,1.36.3,5.04-.27,5.31,0,.34.35-.4,3.65,0,4.01.31.28,2.27-.32,3.21.04,1.6.62,17.32,12.5,18.43,14.28.8,1.28.18,3.58,1.75,4.79,2.04,1.58,11.1,3.86,12.31,7.13.61,1.63-.09,3.84.42,4.63.27.41,6.61,3.53,7.66,5.36.59,1.02-.19,2.96.35,3.6.41.49,2.71.09,3.41,1.08.75,1.07.17,3.24.74,4.82.17.46,6.7,5.51,7.37,6.57,1.4,2.21,3.24,9.13,4.65,11.37.42.67,3.27,2.27,3.38,2.57.63,1.88-.12,3.99.77,5.79.71,1.43,3.31,1.53,3.55,2.66.29,1.35-.31,3.07,0,4.57.19.89,3.63,2.45,3.9,3.48,2.82,10.42,6.43,19.74,9.32,30.49,4.98,18.57,7.04,29.56,8.75,48.25,1.26,13.72,1.82,16.23.04,30.06-2.12,16.52-2.73,32.46-6.31,47.69-.99,4.21-6.97,14.31-7.7,17.46-.6,2.57.59,6.22-.02,8.59-.22.85-2.27,1.07-3.13,3.07-1.06,2.47-.39,4.91-.93,6.92-.13.48-3.77,2.67-1.96,6.72l-1.98-1.02c.36,2.89-1.95,3.39-3.21,6.27-.85,1.94-.77,4.16-1.73,6.36-1,2.3-4.41,3.81-5.34,5.66s-1.7,6.27-1.95,6.56c-.33.39-1.96.01-2.42.46-2.79,2.73-4.99,8.95-5.53,9.58-.31.37-1.98-.07-2.49.4-3.05,2.81-5.52,7.76-8.58,10.05-1.33.99-4.46,1.64-4.62,1.83-.66.81.24,3.43-.16,3.83-.36.36-8.1.22-5.99,6.01l-1.98-1.99c-1.01,2.02-4.7,6.45-6.33,7.67-6.61,4.94-19.46,10.71-27.55,14.92-14.61,7.6-25.54,9.95-41.46,13.42-.74.16-.61,1.8-1.36,1.97-4.32.98-3.88.35-8.09,1.99-.93.36-2.9-.24-3.22.04-.46.4.41,7.46-.03,9.31-.18.76-1.79.61-1.96,1.37-.3,1.32-1.06,8.31-1.1,9.88,0,.2,1.88,3.44,2.08,3.44h18.5c3.94,0,40.24-10.5,44.16-12.34,11.23-5.26,17.28-8.89,27.12-15.61,5.75-3.93,10.98-6.02,16.39-10.16,2.53-1.93,4.04-4.51,7.58-5.65,3.85-1.23,17.54-.88,21.83-.32,1.85.24,1.31,1.87,2.12,2.06,3.27.77,8.39-.73,11.63.04,3.77.91,10,3.51,15.13,4.03,6.18.63,57.88,1.42,60.35-.32.54-.38-.56-2.23,1.7-1.74.92.2.27,2.04,1.02,2.07,1.4.05,2.71-1.55,4.21-1.83,2.37-.45,9.48.49,9.28-3.22.67,0,1.33,0,2,0,13.22.07,21.93-.93,34.45-3.05,8.5-1.44,15.07-4.32,22.83-5.98.81-.17,2.58-3.54,3-3.71,1.01-.39,2.72.45,4.31-.06,1.49-.47,1.38-2.02,2.12-2.17,5.94-1.28,5.58-1.93,10.59-3.99,10.64-4.37,23.47-11.8,30.71-22.04,5.67-1.91,9.64-6.15,15.24-10.05,3.18-2.22,2.5-5.35,3.37-6.06.63-.51,10.39-6.77,11.47-7.34,1.27-.67,3.62-.38,3.87-.6.36-.33-.06-2.93.05-3.94,6.97-1.42,7.79-1.96,13.68-4.34.34-.14.35-1.47,1.02-1.63,4.27-1.05,7.04.42,10.33,2.66.5.34.64,2.06,1.98,2.78,3.71,2,3.94.66,6.88,5.39,2.61,4.19,3.06,5.54,4.14,10.41.18.83,3.19,2.28,3.59,2.97.89,1.56,1.82,7.3,2.43,9.03.33.93,1.95.73,1.96,1.31.1,7.65,1.57,4.13,2.02,6.12.98,4.35,3.25,9.31,3.73,13.04s-.44,8.66.26,11.57c.13.56,3.83,8.82,3.96,9.37,3.72,15.74,1.97,38.22,3.94,53.88.24,1.91,1.92.95,2.16,2.87.34,2.68.34,10.45,0,13.13-.24,1.91-1.92.95-2.16,2.87-2.42,19.2,2.62,42.16-1.94,61.88-.59,2.53-3.23,9.72-3.94,12.4-1.86,7-.79,16.32-2.06,21.6-.19.77-1.8.6-1.97,1.37-1.12,5.1-1.81,9.07-3.68,13.64-2.73,6.68-1.02,9.49-2.36,14.99-.19.77-1.8.6-1.97,1.37-3.47,15.78-10.18,27.26-16.11,42.54-1.27,3.28-9.67,16.36-9.9,17.47-1.38,6.66-5.37,11.73-8.01,18.31-6.51,3.12-2.08,1.12-4.21,4.77-.39.66-2.59.79-3.3,2.21-.76,1.53-.15,3.96-.95,5.08-.73,1.02-2.96.6-3.38,1.11-.5.6.14,2.44-.46,3.54-.67,1.23-9.41,10.14-11.27,12.69-.87,1.18-1.98,5.01-2.6,5.41-.3.19-1.74-.91-1.81-.82-.13.17.24,1.72-.36,2.63-2.17,3.32-26.94,26.34-29.91,28.15-.9.55-2.68-.06-3.43.54-1.21.97-5.96,7.12-6.58,7.4-1.28.57-3.5.1-3.72.3-.4.37.34,3.66,0,4.01-.24.24-4.01-.38-5.76.29-.46.18-5.48,6.69-6.56,7.38-.9.58-6.59,2.09-7.38,2.62-1.1.75-4.23,5.29-4.54,5.47-1.85,1.08-9.33,3.58-12.32,5.16-6.11,3.24-11.31,7.7-16.73,9.09-.84.22-.67,1.79-1.4,1.96-1.51.35-4.61-.45-5.25.14-.3.28.38,1.94-.7,2.94-2.42,2.23-8.84,3.14-12.12,4.64-1.83.83-6.09,3.47-8.03,4.2-13.36,5.06-27.91,9.28-40.91,14.43-.36.14-.33,1.66-.89,1.67-1.02.02-2.46-1.31-3.81-.95-1.23.33-1.21,2.7-2.3,2.97-1.89.47-4.56-.48-6.63,0-3.68.84-11.12,4.89-15.42,5.75-2.64.53-8.77,2.19-9.7,2.31-3.34.43-7.11-.41-10.83.16-5.28.81-13.34,4.83-18.3,5.7-6.65,1.17-13.81.99-20.83,2.17-9.66,1.62-15.75,1.12-24.99,2.01-5.21.5-10.79,3.34-15.07,3.93-10.35,1.41-23.83-1.16-34.54-.04l4.99,1.98c-17.96-1.15-37.81,1.56-55.54.05-12.4-1.05-35.23-.99-45.74-4.09-9.08-2.68-18-1.74-28.29-3.88-6.04-1.26-11.94-1.1-17.87-2.13-4.35-.75-11.94-2.89-17.01-3.99-11.19-2.43-21.47-6.65-32.26-8.56-7.8-1.38-22.79-7.83-32.03-11.16-15.99-5.77-23.67-9.79-38.54-18.44-2.79-1.62-19.35-9.69-20.49-11.08-.48-.59.02-2.2-.35-2.54-.21-.19-2.62-.86-4.62-2.13-6.57-4.17-13-8.63-18.99-12.27-1.33-.81-6.5-7.7-8.2-9.32-25.22-24.11-40.58-45.93-53.93-77.29-2.88-6.76-2.82-7.72-4.16-14.46-.1-.52-2.77-1.67-3.41-3.76-1.06-3.45-1.79-10.11-2.83-14.17-1.34-5.26-2.75-10.67-4.03-15.98-4.53-18.64-2.09-59.27,2.32-78.12.11-.46,3.85-6.91,3.96-7.37,1.29-5.37-.72-4.38,2.32-10.55,4.73-9.6,8.14-18.69,11.36-27.09,2.45-6.38,7.28-12.83,10.31-18.4,3.45-6.35,8.63-12.32,11.89-18.13,2.87-5.11,2.87-6.66,6.84-11.1,9.07-10.15,16.62-18.52,26.87-28.43,1.25-1.21,11.83-12.91,12.7-13.29,10.59-4.57,12.49-9.7,20.79-14.71,5.87-3.55,7.94-3.56,14.15-1.51,7.19,2.37,13.47,5.25,22.18,5.93.7.05.51,1.77,1.28,1.96,5.64,1.39,24.76.01,30.55-2.07,5.1-1.83,5.74-.9,10.09-1.94.75-.18.61-1.8,1.37-1.96,1.46-.33,3.15.27,4.62-.02.81-.16.81-1.65,1.42-1.96,4.56-2.26,4.42-.44,5.27-5.03,1.97-.67,4.62-.25,4-3,.31-.08.69.09,1,0,3.04-.86,6.73-1.32,8.67-4.32,4.66-7.21,11.46-14.97,15.65-22.94,2.71-5.14,1.72-9.63,2.7-14.06.17-.79,1.82-.26,2.06-2.11.53-4.05-.02-10.66-.06-15.08-.02-1.69.64-4.44-1.02-5.49.08-.99-.07-2.01,0-3,.76-11.3,1.28-15.85-1.01-26.32-.17-.76-1.8-.62-1.97-1.36-.45-2.01.35-4.45-.06-6.6-.16-.84-3.74-2.57-3.93-3.45-.36-1.65.35-3.33-.31-5.03-1.02-2.65-17.31-14.27-20.01-15.96-.99-.62-2.83.09-3.53-.45-.44-.34-.88-4.16-2.53-5.5-3.54-2.87-9.81-5.97-13.67-8.33-.12-.17-.21-1.08-.76-1.91-1.05-1.57-2.45-1.53-3.24-2.09ZM393.63,192.41c-4.74-3.07-12.55-3.04-18.16-2.44-6,.64-17.15,2.06-22.7,4.11-.86.32-.65,1.46-1.52,1.85-.92.41-2.71-.1-4.22.58-4.23,1.89-5.35,6.26-7.45,9.1-4.78,6.49-8.92,11.86-11.5,19.16-2.1,5.94-3.46,24.7-2.06,30.54.18.76,1.8.62,1.96,1.36.39,1.79-.4,4,.06,5.78,1.38,5.34,4.42,10.93,4.96,16.55,4.28-2.34,3.29,1.59,5.42,4.6.99,1.4,7.04,6.1,7.28,6.67.56,1.28.12,3.53.29,3.72.3.32,3.91-.31,5.3.03.35.09,4.86,3.67,5.48,3.88,6.49,2.27,24.75,3.31,31.24,1.62,6.82-1.77,22.58-12.21,25.67-17.82.61-1.11-.05-2.95.47-3.58.25-.3,2.83-.49,5.24-4.26,6.49-10.16,8.38-30.58,6.67-43.45-.24-1.84-1.81-1.23-2.05-2.16-1.78-6.87-5.63-15.59-10.45-21.89-5.9-7.72-9.05-7.81-17.33-10.69-.2-.07-1.9-2.82-2.63-3.29ZM560.79,483.29c-66.73,4.1-165.53,44.98-170.84,122.16-8.23,119.79,137.3,162.48,233.25,143.25,103.59-20.77,177.5-123.69,184.78-226.22.48-6.74-1.46-32.85-7.98-35.99-6.81-3.28-27.41,4.75-35.76,6.25-69.35,12.5-135.16-13.65-203.45-9.45Z"/>
  <path class="cls-4" d="M840,703c-16.45,40.95-83.26,89.57-121.98,109.52-140.45,72.36-397.23,80.87-528.74-14.3-77.78-56.29-115.6-157.93-81.75-250.2,17.62-48.04,56.05-97.28,98.16-124.84,2.03-1.33,8.3-5.68,10.05-6.04,2.77-.56,15.05,5.89,19.48,7.13,26.44,7.39,40.9.91,64.78-7.28.55-2.98.8-2.2,4-3,.62,2.75-2.03,2.33-4,3-.85,4.6-.71,2.77-5.27,5.03-.61.3-.61,1.79-1.42,1.96-1.47.3-3.17-.3-4.62.02-.76.17-.62,1.78-1.37,1.96-4.34,1.04-4.98.11-10.09,1.94-5.79,2.08-24.91,3.46-30.55,2.07-.77-.19-.59-1.91-1.28-1.96-8.71-.68-14.98-3.56-22.18-5.93-6.21-2.05-8.27-2.04-14.15,1.51-8.3,5.01-10.2,10.14-20.79,14.71-.86.37-11.45,12.08-12.7,13.29-10.26,9.92-17.8,18.28-26.87,28.43-3.97,4.44-3.97,5.99-6.84,11.1-3.27,5.82-8.44,11.78-11.89,18.13-3.03,5.57-7.86,12.02-10.31,18.4-3.23,8.4-6.63,17.49-11.36,27.09-3.04,6.18-1.03,5.19-2.32,10.55-.11.46-3.85,6.91-3.96,7.37-4.41,18.84-6.84,59.47-2.32,78.12,1.29,5.31,2.69,10.72,4.03,15.98,1.04,4.05,1.77,10.72,2.83,14.17.64,2.09,3.31,3.24,3.41,3.76,1.34,6.75,1.28,7.7,4.16,14.46,13.35,31.36,28.71,53.18,53.93,77.29,1.69,1.62,6.87,8.51,8.2,9.32,5.99,3.65,12.41,8.11,18.99,12.27,2.01,1.27,4.42,1.94,4.62,2.13.37.34-.13,1.95.35,2.54,1.14,1.39,17.7,9.46,20.49,11.08,14.88,8.65,22.55,12.67,38.54,18.44,9.24,3.34,24.24,9.78,32.03,11.16,10.79,1.91,21.07,6.12,32.26,8.56,5.07,1.1,12.66,3.24,17.01,3.99,5.93,1.03,11.83.87,17.87,2.13,10.29,2.14,19.21,1.2,28.29,3.88,10.51,3.1,33.34,3.03,45.74,4.09,17.73,1.51,37.58-1.2,55.54-.05l-4.99-1.98c10.72-1.12,24.19,1.45,34.54.04,4.28-.58,9.86-3.43,15.07-3.93,9.23-.89,15.33-.39,24.99-2.01,7.02-1.18,14.18-1,20.83-2.17,4.96-.87,13.02-4.89,18.3-5.7,3.72-.57,7.48.27,10.83-.16.93-.12,7.06-1.79,9.7-2.31,4.29-.86,11.73-4.91,15.42-5.75,2.07-.47,4.74.48,6.63,0,1.09-.27,1.07-2.64,2.3-2.97,1.36-.36,2.79.97,3.81.95.55-.01.53-1.52.89-1.67,13-5.16,27.55-9.38,40.91-14.43,1.94-.73,6.19-3.37,8.03-4.2,3.29-1.49,9.7-2.4,12.12-4.64,1.09-1,.41-2.67.7-2.94.64-.59,3.74.2,5.25-.14.73-.17.55-1.74,1.4-1.96,5.42-1.39,10.62-5.85,16.73-9.09,2.99-1.58,10.47-4.08,12.32-5.16.31-.18,3.44-4.72,4.54-5.47.79-.53,6.48-2.04,7.38-2.62,1.08-.69,6.1-7.2,6.56-7.38,1.75-.67,5.52-.05,5.76-.29.34-.35-.4-3.64,0-4.01.21-.2,2.44.27,3.72-.3.62-.27,5.37-6.43,6.58-7.4.76-.6,2.54,0,3.43-.54,2.97-1.81,27.75-24.82,29.91-28.15.6-.92.22-2.47.36-2.63.07-.09,1.51,1.01,1.81.82.63-.4,1.74-4.23,2.6-5.41,1.86-2.55,10.6-11.45,11.27-12.69.6-1.1-.05-2.94.46-3.54.42-.51,2.66-.09,3.38-1.11.8-1.12.19-3.55.95-5.08.71-1.43,2.91-1.55,3.3-2.21,2.13-3.65-2.31-1.65,4.21-4.77,2.64-6.58,6.63-11.65,8.01-18.31.23-1.11,8.62-14.19,9.9-17.47,5.93-15.28,12.64-26.76,16.11-42.54.17-.76,1.78-.6,1.97-1.37,1.33-5.5-.37-8.3,2.36-14.99,1.87-4.57,2.56-8.54,3.68-13.64.17-.76,1.78-.6,1.97-1.37,1.28-5.28.2-14.6,2.06-21.6.71-2.68,3.35-9.86,3.94-12.4,4.56-19.72-.48-42.68,1.94-61.88.24-1.91,1.92-.95,2.16-2.87.34-2.68.34-10.45,0-13.13-.24-1.91-1.92-.95-2.16-2.87-1.98-15.66-.22-38.14-3.94-53.88-.13-.56-3.82-8.82-3.96-9.37-.7-2.92.22-7.88-.26-11.57s-2.76-8.69-3.73-13.04c-.45-1.99-1.92,1.53-2.02-6.12,0-.58-1.63-.38-1.96-1.31-.61-1.73-1.55-7.47-2.43-9.03-.39-.69-3.4-2.14-3.59-2.97-1.08-4.87-1.54-6.22-4.14-10.41-2.94-4.73-3.17-3.39-6.88-5.39-1.33-.72-1.48-2.44-1.98-2.78-3.3-2.25-6.07-3.71-10.33-2.66-.67.16-.68,1.49-1.02,1.63-5.89,2.38-6.71,2.92-13.68,4.34-.11,1.02.31,3.61-.05,3.94-.25.23-2.6-.07-3.87.6-1.08.57-10.84,6.83-11.47,7.34-.87.71-.2,3.85-3.37,6.06-5.6,3.91-9.57,8.14-15.24,10.05-7.24,10.24-20.06,17.67-30.71,22.04-5.01,2.05-4.65,2.71-10.59,3.99-.73.16-.63,1.7-2.12,2.17-1.59.51-3.3-.33-4.31.06-.42.17-2.19,3.53-3,3.71-7.75,1.66-14.33,4.54-22.83,5.98-12.52,2.12-21.23,3.12-34.45,3.05,27.72-5.61,56.54-10.14,81.67-23.83,7.92-4.31,19.46-14.86,26.33-17.17,5.29-7.48,25.26-26.22,34-28,.11-.95-.42-1.23.62-2.08,4.62-3.76,17.04-5.95,22.83-4.88,11.8,2.18,22.55,29.6,26.01,39.99,28.84,86.7,14.26,216.54-29.27,296.65-2.51,4.63-8.2,15.4-12.19,17.31Z"/>
  <path class="cls-4" d="M282,270c-7.38-5.24-8.69-8.93-14.49-15.01-22.75-23.87-38.98-33.88-72.16-38.84-3.9-.58-17.45-.45-18.69-3.37-2.64-6.21,4.32-31.49,6.63-38.98C221.35,50.55,360.59-.36,477.25,45.25c113.41,44.34,151.99,175.55,113.77,285.27-22.46,64.48-72.02,101.31-138,115-2.03,1.22-6.53,17.23-5.59,18.52,2.7,3.69,34.42-2.44,40.21-3.9,15.48-3.92,37.32-13.27,50.53-22.19,4.98-3.36,10.33-9.3,15.51-12.76,6.35-4.25,8.77-5.61,16.71-5.04,14.58,1.05,30.78,5.7,46.13,6.86,25.02,1.89,47.59-2.15,71.49-1.99.2,3.71-6.91,2.77-9.28,3.22-1.5.29-2.81,1.89-4.21,1.83-.74-.03-.1-1.87-1.02-2.07-2.26-.49-1.16,1.36-1.7,1.74-2.47,1.74-54.17.96-60.35.32-5.14-.53-11.37-3.13-15.13-4.03-3.24-.78-8.36.72-11.63-.04-.81-.19-.27-1.81-2.12-2.06-4.28-.56-17.98-.91-21.83.32-3.53,1.13-5.05,3.72-7.58,5.65-5.41,4.14-10.64,6.23-16.39,10.16-9.84,6.72-15.89,10.35-27.12,15.61-3.92,1.84-40.22,12.34-44.16,12.34h-18.5c-.2,0-2.08-3.24-2.08-3.44.04-1.56.8-8.56,1.1-9.88.17-.76,1.78-.61,1.96-1.37.44-1.85-.43-8.91.03-9.31.33-.28,2.3.32,3.22-.04,4.2-1.64,3.77-1.01,8.09-1.99.74-.17.61-1.8,1.36-1.97,15.91-3.47,26.85-5.82,41.46-13.42,8.09-4.21,20.94-9.97,27.55-14.92,1.62-1.21,5.31-5.65,6.33-7.67l1.98,1.99c-2.11-5.79,5.63-5.65,5.99-6.01.4-.4-.5-3.02.16-3.83.16-.19,3.28-.84,4.62-1.83,3.07-2.29,5.54-7.24,8.58-10.05.51-.47,2.18-.03,2.49-.4.53-.63,2.73-6.85,5.53-9.58.46-.45,2.09-.07,2.42-.46.25-.29,1.01-4.7,1.95-6.56s4.34-3.35,5.34-5.66.87-4.41,1.73-6.36c1.26-2.88,3.58-3.38,3.21-6.27l1.98,1.02c-1.81-4.05,1.83-6.24,1.96-6.72.54-2.01-.13-4.45.93-6.92.86-2.01,2.91-2.23,3.13-3.07.61-2.37-.58-6.02.02-8.59.74-3.15,6.71-13.25,7.7-17.46,3.58-15.23,4.19-31.17,6.31-47.69,1.78-13.83,1.22-16.34-.04-30.06-1.72-18.68-3.78-29.67-8.75-48.25-2.88-10.76-6.5-20.08-9.32-30.49-.28-1.03-3.71-2.59-3.9-3.48-.32-1.5.29-3.22,0-4.57-.24-1.13-2.84-1.23-3.55-2.66-.89-1.79-.14-3.91-.77-5.79-.1-.3-2.95-1.89-3.38-2.57-1.4-2.24-3.25-9.16-4.65-11.37-.67-1.06-7.2-6.11-7.37-6.57-.58-1.58,0-3.75-.74-4.82-.7-.99-3-.59-3.41-1.08-.54-.65.24-2.58-.35-3.6-1.06-1.83-7.4-4.95-7.66-5.36-.51-.79.19-2.99-.42-4.63-1.21-3.27-10.27-5.55-12.31-7.13-1.57-1.21-.95-3.51-1.75-4.79-1.11-1.78-16.83-13.66-18.43-14.28-.94-.36-2.9.23-3.21-.04-.4-.36.34-3.65,0-4.01-.27-.28-3.95.29-5.31,0-.82-.18-.79-1.62-1.43-1.95-3.83-1.96-16.17-9.45-17.99-9.98s-5.03.29-6.69-.96c-1-.75-.33-2.68-.65-2.97-.46-.41-9.42-1.63-11.92-2.65s-8.84-5.09-10.48-5.3c-8.47-1.08-12.68-2.09-21.09-4.13-6.2-1.51-13.61-.86-18.75-2.07-.81-.19-.33-1.95-2.15-2.09-2.87-.22-5.92,1.2-9.04,1.2-12.46.01-25.66-1.36-37.93-1.12-.65.01-.08,1.86-2,2.11-5.13.67-14.61-.53-18.81.14-3.63.58-11.81,4.95-16.31,5.72-6.76,1.16-8.53-.15-15.11,2.4-7.45,2.89-14.08,5.87-21.61,9.69-4.57,2.32-3.08,1.07-8.01,2.01-.63.12-2.62,3.52-3.99,4.24-2.61,1.37-8.22,2.64-10.41,4.04-1.62,1.03-4.76,5.89-6.7,7.26-13.82,9.76-20.77,14.3-32.91,26.45-1.98,1.99-14.03,13.23-14.41,14.21-4.07,10.57-5.57,7.25-10.01,14.04-8.33,12.73-15.02,31.55-20.62,45.39-3.2,7.92-3.62,15.93-7.65,23.01,2.12,6-7.06,19.1,1.56,20.22,8.1,1.05,14.87,1.57,23,3.03s17.07,3.09,23.76,5.74c4.23,1.67,13.97,7.59,18.91,10.39,1.84,1.04,5.21,6.22,7.09,7.59.95.69,2.9.25,4.28,1.28.89.66,1.04,2.54,1.61,2.88,1.09.64,3.41-.14,3.76.22.24.25-.24,2.44.32,3.7.14.32,4.47,3.66,5.29,4.66,1.06,1.3,1.32,3.56,2.76,5.28,1.21,1.43,7.33,5.88,8.18,7.36.24.41.04,2.63,1.47,4.98.79.56,2.19.52,3.24,2.09.55.83.64,1.74.76,1.91,3.85,2.36,10.13,5.46,13.67,8.33,1.65,1.34,2.09,5.16,2.53,5.5.7.54,2.54-.17,3.53.45,2.7,1.69,18.98,13.31,20.01,15.96.66,1.7-.05,3.39.31,5.03.19.87,3.77,2.61,3.93,3.45.41,2.15-.4,4.59.06,6.6.17.73,1.8.6,1.97,1.36,2.3,10.47,1.78,15.02,1.01,26.32-.97-11.46-2.79-23.6-7.24-34.26-8.1-19.42-27.71-21.8-39.76-38.74-.52-.32-1.69-.19-2.56-.94-1.28-1.09-.98-2.32-1.44-3.06ZM504.5,456v1c.65-.33.65-.67,0-1Z"/>
  <path class="cls-1" d="M250,268c7.52,8.16,14.67,17.43,22.35,25.65,4.7,5.03,22.24,19.05,23.48,24.12.63,2.6-1.54,5.46-3.34,7.23-23.8,23.41-76.15,29.83-107.72,24.73-42.72-6.9-70.16-28.78-106.91-47.09-2.9-1.44-20.57-9.88-21.86-8.63-.34,3.27,2.4,5.46,4.41,7.55s12.17,8.65,9.58,11.44c-2.08,2.24-21.46-12.96-24.04-15.48-10.93-10.67-24.81-30.72,1.54-31.31,34.7-.78,88.53,25.64,113.14-12.07,3.32-5.09,8.33-22.35,12.11-23.89,16.21-6.59,48.01,9.9,60.89,20.15,6.27,4.99,11.16,11.95,16.36,17.6-.22-.22-1.02.15-1,.5.07,1.09,1.47-.03,1-.5ZM197.71,234.33c-.75-.34-14.02-2.11-16.23-2.32-10.2-.96-9.81,9.9-13.59,17.15-.93,1.79-5.22,9.04-6.21,10.52-9.96,14.86-35.11,20.55-52.25,18.39-1.91-.24-.95-1.92-2.87-2.16-11.38-1.43-27.67.59-37.74-4.01-1.12-.51-.57-1.76-2.26-1.99-4.79-.64-20.24-.57-25.11.03-5.39.67-6.9,4.39-5.52,9.48.29,1.07,2.14.06,3.14,1.19,1.3,1.46,2.31,7.11,3.44,8.38.92,1.04,2.77.68,3.28,1.24.62.68-.02,2.22.2,2.76.23.57,7.27-3.6,6,6.99,3.77.75,1.24-4.83,2.15-7.38.43-1.22,2.1-1.22,2.59-1.91.7-1-.54-3.03,1.25-2.71-.04.67.13,1.63.71,2,9.06,5.81,21.58,8.64,30.57,14.02,1.03.62.96,3.17,4.72,1.98l-1.99,1.98c3.32-1.25,3.82,1.42,4.33,1.67,9.75,4.76,26.46,12.43,34.93,18.31,1.21.84,1.41,2.92,2.7,3.55,2.33,1.13,4.95.07,7.31.52.85.16,2.45,3.62,3.47,3.9,13.43,3.67,28.08,7.33,40.57,10.07.76.17.6,1.78,1.37,1.97,2.78.67,43.75.66,46.61-.01,1.85-.43,7.58-3.19,11.91-4.26,12.01-2.98,18.01-5.1,28.05-9.99,1.39-.68,8.31-3.53,8.56-3.93.46-.74-.07-2.32.51-3.47,1.78-3.54,6.5-1.6,7.53-2.47.24-.21,2.12-5.27,1.98-6.08-.37-2.21-3.44-3.73-3.57-4.03-.58-1.32-.05-3.43-.27-3.73-.27-.35-3.46.53-4.8-.22-.28-.16-2.6-4.22-3.65-5.37-2.72-2.99-11.02-9.48-12.61-11.84-.99-1.48-.71-3.56-1.31-4.25-1.55-1.81-8.92-7.54-9.37-8.59-.54-1.27-.06-3.47-.29-3.71-.36-.37-2.8.44-3.81-.17-.68-.42-1.27-4.18-2.12-5.2-3.96-4.75-10.09-8.56-15-12.2-1.69-1.25-10.52-11.87-11.3-12.15-2.38-.84-3.74-1.04-6.09-1.95-6.32-2.44-13.96-7.29-19.96-10.01Z"/>
  <path class="cls-1" d="M307.62,377.64c-15.3,32.29-59.09,31.52-88.31,21.55-15.94-5.44-28.87-15.32-43.95-22.05-17.48-7.8-39.65-13.97-58.82-15.18-6.56-.41-19.9,1.41-25.14-.86-4.62-2.01-5.77-12.75-2.91-16.11,1.6-1.88,21.27-2.11,25.06-2.04,32.26.65,51.07,10.91,79.26,20.94,56.21,20,66.28,3.43,107.72-28.86,4.15-3.24,6.36-4.95,8.97.97,5.36,12.19,3.75,29.77-1.88,41.64ZM309.71,361.74c.48-.83-1.53-17.18-1.93-19.02-1.76-8-5.94-.52-8.83.72-1.56.66-3.28.28-4.68.89-.32.14-3.76,4.48-4.64,5.28-1.31,1.2-3.5,1.31-4.72,2.86-.81,1.03-.74,3.14-1.05,3.4-.69.6-3.64-.14-5.15.17-.67.14-2.21,2.94-3.09,3.57-1.79,1.29-6.98,5.53-7.96,6.06-1.78.97-4.82.72-6.95,2.3-1.21.9-1.51,2.98-2.7,3.55-1.99.95-5,.01-5.91.61-.75.5-.35,3.57-1.79,3.92-2.46.6-21.67.43-24.9.03-1.93-.24-1.07-3.09-4.78-2.07-.63.17-.53,3.25-5.95,1.97-.82-.19-.84-1.66-1.44-1.93-5.52-2.51-9.75-1.98-15.15-4.6-7.85-3.81-14.33-4.72-21.78-7.77-1.69-.69-8.9-4.85-10.29-5.18-8.93-2.14-17.5-4.48-26.35-6.5-.76-.17-.62-1.78-1.37-1.96-4.4-1.06-28.32-1.06-34.81-1.08-1.53,0-11.08.67-11.48,1.08-.23.23-.98,6.1-.92,6.41.32,1.61,3.19,1.33,4.57,1.94.33.14.36,1.43,1.04,1.59,8.46,2.04,25.16.76,34.74,2.08,14.01,1.94,30.41,7.47,41.79,12.25,2.83,1.19,10.4,3.06,12.14,4.63,1.07.96.4,2.68.69,2.95.64.59,3.73-.2,5.24.14.7.16.52,1.57,1.41,1.93,1.07.44,3.15-.34,4.35.48,1.07.73.68,3.2.99,3.49,1.22,1.15,7.09-2.94,7.93,1.06l-2,2c2.79-.56,3.66,2.36,4.29,2.72,1.28.74,22.39,7.97,24.26,8.24,4.1.59,11.04-.67,14.8,1.01,1.34.6.06,2.87,1.18,3.1,2.79.58,6.15-1.16,8.96-1.15,3.06,0,6.23,1.72,9.5,1.07-2.57-2.22,2.53-6.54,4.48-6.01.34.09.39,3.4,5.81,1.98.68-.18.68-1.48,1.03-1.62,2.23-.94,5.94-1.79,7.86-2.64,3.77-1.67,15.21-14.18,17.44-18.04.43-.75,2.44-6.43,2.48-7.18.1-1.78-1.61-1.47-1.76-1.74-2.37-4.24,3.14-2.17,3.65-2.74.29-.32-.33-2.31.03-3.23s1.54-.78,1.68-1.03Z"/>
  <path class="cls-4" d="M333,350c1.66,1.04,1,3.8,1.02,5.49.05,4.42.59,11.03.06,15.08-.24,1.86-1.89,1.32-2.06,2.11-.97,4.44,0,8.92-2.7,14.06-4.19,7.96-10.99,15.72-15.65,22.94-1.94,3-5.63,3.46-8.67,4.32,2.33-5.69,8.71-9.24,12.43-14.07,11.44-14.83,14.04-31.83,15.57-49.93Z"/>
  <path class="cls-3" d="M560.79,483.29c68.29-4.2,134.1,21.95,203.45,9.45,8.35-1.5,28.95-9.53,35.76-6.25,6.52,3.14,8.46,29.25,7.98,35.99-7.28,102.53-81.19,205.45-184.78,226.22-95.94,19.23-241.48-23.46-233.25-143.25,5.3-77.18,104.11-118.06,170.84-122.16ZM546,507c-.67,0-1.33.01-2,0-21.08-.38-61.01,15.16-79.31,26.19-96.06,57.92-58.75,155.05,34.35,187.27,79.35,27.46,180.88,1.89,234-63.92,1.2-1.49,2.35-2.25,1.96-4.54.27-.12.69.1,1,0,6.26-2.09,27.44-41.81,30.86-49.64,9.74-22.33,22.39-64.93,20.14-88.87-.88-9.34-10.8-2.28-16.79-.78-68.46,17.17-140.16-11.54-209.75-7.75-4.59.25-9.82,1.56-14.46,2.04Z"/>
  <path class="cls-4" d="M393.63,192.41c.73.47,2.43,3.22,2.63,3.29,8.28,2.87,11.43,2.96,17.33,10.69,4.82,6.3,8.67,15.02,10.45,21.89.24.93,1.81.32,2.05,2.16,1.71,12.87-.18,33.29-6.67,43.45-2.41,3.77-4.98,3.96-5.24,4.26-.53.62.14,2.47-.47,3.58-3.09,5.61-18.85,16.05-25.67,17.82s-24.75.65-31.24-1.62c-.62-.22-5.13-3.8-5.48-3.88-1.4-.34-5.01.29-5.3-.03-.18-.19.27-2.44-.29-3.72-.25-.56-6.3-5.27-7.28-6.67-2.12-3.01-1.14-6.94-5.42-4.6-.54-5.62-3.58-11.21-4.96-16.55-.46-1.78.33-3.99-.06-5.78-.16-.74-1.78-.6-1.96-1.36-1.4-5.84-.04-24.6,2.06-30.54,2.58-7.31,6.72-12.67,11.5-19.16,2.09-2.84,3.22-7.21,7.45-9.1,1.52-.68,3.3-.17,4.22-.58.87-.39.66-1.53,1.52-1.85,5.55-2.05,16.7-3.47,22.7-4.11,5.6-.6,13.42-.63,18.16,2.44ZM344.35,284.65c24.6,24.94,61.89,11.91,74.83-17.97,16.61-38.36-15.99-86.39-59.16-71.16-35.62,12.57-40.46,63.99-15.67,89.13Z"/>
  <path class="cls-2" d="M504.5,456c.65.33.65.67,0,1v-1Z"/>
  <path class="cls-5" d="M197.71,234.33c6,2.71,13.64,7.56,19.96,10.01,2.35.91,3.71,1.11,6.09,1.95.78.28,9.61,10.9,11.3,12.15,4.9,3.63,11.03,7.45,15,12.2.85,1.02,1.44,4.78,2.12,5.2,1.01.62,3.45-.2,3.81.17.23.24-.25,2.44.29,3.71.45,1.05,7.82,6.79,9.37,8.59.6.7.31,2.78,1.31,4.25,1.59,2.36,9.89,8.85,12.61,11.84,1.05,1.15,3.37,5.21,3.65,5.37,1.33.75,4.53-.13,4.8.22.22.3-.31,2.4.27,3.73.13.3,3.2,1.81,3.57,4.03.13.81-1.74,5.88-1.98,6.08-1.04.88-5.75-1.06-7.53,2.47-.58,1.15-.05,2.74-.51,3.47-.25.4-7.17,3.25-8.56,3.93-10.04,4.89-16.04,7.01-28.05,9.99-4.33,1.07-10.05,3.83-11.91,4.26-2.86.67-43.83.68-46.61.01-.76-.18-.6-1.8-1.37-1.97-12.49-2.74-27.14-6.4-40.57-10.07-1.02-.28-2.62-3.74-3.47-3.9-2.35-.45-4.98.6-7.31-.52-1.29-.63-1.49-2.71-2.7-3.55-8.47-5.87-25.19-13.55-34.93-18.31-.51-.25-1.01-2.92-4.33-1.67l1.99-1.98c-3.77,1.19-3.69-1.36-4.72-1.98-9-5.38-21.51-8.21-30.57-14.02-.57-.37-.75-1.33-.71-2-1.79-.32-.55,1.71-1.25,2.71-.49.69-2.15.69-2.59,1.91-.91,2.55,1.62,8.13-2.15,7.38,1.27-10.59-5.77-6.43-6-6.99s.42-2.08-.2-2.76c-.51-.56-2.36-.21-3.28-1.24-1.13-1.27-2.14-6.92-3.44-8.38-1-1.12-2.85-.12-3.14-1.19-1.38-5.1.13-8.82,5.52-9.48,4.88-.6,20.32-.67,25.11-.03,1.69.23,1.14,1.48,2.26,1.99,10.07,4.6,26.36,2.58,37.74,4.01,1.91.24.95,1.92,2.87,2.16,17.14,2.16,42.29-3.53,52.25-18.39.99-1.48,5.28-8.74,6.21-10.52,3.78-7.25,3.39-18.1,13.59-17.15,2.21.21,15.48,1.98,16.23,2.32ZM229.71,272.34c-2.46-.91-7.93-.63-10.14.77-1.01.64-1.28,2.34-1.83,2.65-1.03.58-2.68-.09-3.53.42-1.19.72-1.81,5.99-2.58,7.49-1.52,2.98-5.92.74-1.94,7.07,2.39,3.8,10.53,10.61,14.97,11.03,4.08.38,5.71-5.75,10.34-3.78l-1.02-1.99c3.91.76,2.76-1.5,4.01-3.29.46-.66,1.81-.61,1.99-1.41,2.23-9.86-1.45-14.45-9.64-17.69-.33-.13-.4-1.19-.64-1.28Z"/>
  <path class="cls-5" d="M250,268c.47.47-.93,1.59-1,.5-.02-.35.78-.72,1-.5Z"/>
  <path class="cls-5" d="M309.71,361.74c-.15.25-1.32.1-1.68,1.03s.26,2.91-.03,3.23c-.51.57-6.02-1.51-3.65,2.74.15.27,1.86-.04,1.76,1.74-.04.75-2.05,6.43-2.48,7.18-2.23,3.87-13.67,16.38-17.44,18.04-1.92.85-5.63,1.7-7.86,2.64-.35.15-.35,1.44-1.03,1.62-5.42,1.42-5.48-1.89-5.81-1.98-1.95-.53-7.06,3.79-4.48,6.01-3.27.64-6.44-1.07-9.5-1.07-2.82,0-6.18,1.74-8.96,1.15-1.12-.23.16-2.5-1.18-3.1-3.76-1.68-10.71-.43-14.8-1.01-1.87-.27-22.98-7.5-24.26-8.24-.64-.37-1.5-3.28-4.29-2.72l2-2c-.84-4-6.71.08-7.93-1.06-.31-.29.08-2.76-.99-3.49-1.21-.83-3.28-.04-4.35-.48-.89-.37-.71-1.77-1.41-1.93-1.51-.34-4.61.44-5.24-.14-.3-.28.37-1.99-.69-2.95-1.73-1.56-9.3-3.44-12.14-4.63-11.38-4.78-27.78-10.31-41.79-12.25-9.58-1.33-26.29-.04-34.74-2.08-.68-.16-.71-1.45-1.04-1.59-1.38-.61-4.24-.33-4.57-1.94-.06-.32.69-6.19.92-6.41.41-.41,9.96-1.09,11.48-1.08,6.5.03,30.42.03,34.81,1.08.75.18.61,1.78,1.37,1.96,8.85,2.03,17.42,4.37,26.35,6.5,1.39.33,8.6,4.49,10.29,5.18,7.45,3.06,13.93,3.96,21.78,7.77,5.4,2.62,9.63,2.1,15.15,4.6.6.27.62,1.74,1.44,1.93,5.42,1.28,5.32-1.79,5.95-1.97,3.71-1.01,2.85,1.83,4.78,2.07,3.24.4,22.44.57,24.9-.03,1.44-.35,1.04-3.42,1.79-3.92.9-.6,3.91.34,5.91-.61,1.19-.57,1.49-2.65,2.7-3.55,2.12-1.58,5.16-1.33,6.95-2.3.98-.54,6.16-4.77,7.96-6.06.88-.63,2.42-3.43,3.09-3.57,1.51-.31,4.46.43,5.15-.17.3-.26.23-2.37,1.05-3.4,1.22-1.55,3.41-1.66,4.72-2.86.87-.8,4.31-5.14,4.64-5.28,1.4-.6,3.12-.22,4.68-.89,2.89-1.23,7.06-8.72,8.83-.72.4,1.84,2.41,18.19,1.93,19.02Z"/>
  <path class="cls-4" d="M546,507c11.53.17,15.27,1.54,27.54-.94,6.29-1.27,6.15,1.8,7.89,2.02,5.77.73,13.39-.93,19.12-.13,8.97,1.26,18.21,2.41,25.84,3.13,9.17.87,18.45,3.44,27.16,4.87,10.95,1.79,22.36.63,33.02,1.97,1.91.24.95,1.92,2.87,2.16,6.68.84,15.45-1,22.13-.16,1.91.24.95,1.9,2.86,2.15,1.5.2,5.52.22,6.9-.09.79-.18.78-1.9,1.17-2,2.82-.74,2.27,1.44,2.74,1.7,1.43.79,22.71-1.24,26.15-1.78,7.5-1.17,17.16-3.81,23.39-5.81,1.13-.36,6.61-1.52,7.15-.99.17.16-.11,1.6.44,2.49.35.56,1.49.19,1.71,1.85.44,3.31.4,16.67-.14,19.93-.07.42-3.25,4.33-3.7,7.37-.53,3.51.38,7.68-.26,10.56-.07.33-3.15,2.17-3.74,5.43-1.68,9.2-1.96,17.69-6.2,26.01-1.76,3.45-1.63,7.99-2.24,9.06-.29.51-2.34.67-3.26,2.22-2.96,4.99-6.16,16.39-8.83,21.71-4.13,8.23-9.64,17.71-16.77,23.72l-2.94,8.54c-.31.1-.73-.12-1,0-2.48,1.06-9.52,6-10.79,8.23-.61,1.06.19,3.05-.35,3.66-.32.37-1.98-.13-2.59.3-1.01.71-.71,3.2-1.43,3.67-.81.52-2.76-.27-3.65.29-.39.24-1.02,3.09-2.16,4.37-1.42,1.6-3.82,2.21-5.24,3.53-4.93,4.58-9.71,7.77-14.02,11.96-6.04,5.87-15.1,8.31-21.37,12.91-.9.66-1.1,2.6-1.58,2.88-1.26.71-3.53-.12-5.12.21-.82.17-.81,1.65-1.42,1.96-6.51,3.32-11.72,4.13-18.04,7.71-4.37,2.48-19.4,6.47-25.96,8.08-20.13,4.95-63.53,9.74-84.71,6.17-4.2-.71-12.17-4.79-17.11-5.89-4.52-1.01-11.89-.8-16.69-2.12-1.04-.28-2.63-3.73-3.48-3.89-2.14-.4-4.58.4-6.58-.07-.23-.05-2.29-1.37-3.85-2.07-8.51-3.83-18.39-11.23-26.78-14.3-.78-.29-2.01.51-2.06.42-.31-.62.45-2.58-.22-3.79-1.11-1.99-6.17-1.79-7.52-2.5-.71-.37-11.3-10.06-11.76-10.73-3.51-5.08-4.41-7.5-8.89-12.59-3.33-3.78-11.73-16.57-13.57-21.14-4.25-10.55-3.64-20.01-6.07-30.59-.17-.76-1.78-.61-1.96-1.37-1.25-5.24.71-8.59,1.91-12.91,2.61-9.36,6.9-23.55,12.39-32.09,1.61-2.5,9.25-7.53,10.73-9.74,4.01-5.97,3.26-6.83,10.09-11.99.71-.54,2.4-.35,2.72-.73.66-.78-.25-3.45.15-3.84.31-.3,2.28.3,3.2-.06,4.15-1.62,12.6-10.38,15.81-11.4,3.59-1.14,4.52-1.6,7.34-2.73,1.4-.56,5.4-.67,5.59-.87.52-.55-.34-4.59.04-4.96.21-.21,4.2.08,6.04-.46,2.71-.8,9.2-5.06,10.69-5.48,10.21-2.89,21.47-3.88,30.58-6.08.46-.11,6.91-3.85,7.37-3.96,3.05-.73,10.56,2.32,9.31-3.02.67.01,1.33,0,2,0Z"/>
  <path class="cls-4" d="M544,507c1.25,5.34-6.27,2.29-9.31,3.02-.46.11-6.91,3.85-7.37,3.96-9.11,2.2-20.37,3.19-30.58,6.08-1.5.42-7.99,4.67-10.69,5.48-1.84.55-5.83.25-6.04.46-.38.38.48,4.41-.04,4.96-.19.21-4.2.32-5.59.87-2.82,1.12-3.75,1.59-7.34,2.73-3.2,1.02-11.66,9.78-15.81,11.4-.92.36-2.88-.25-3.2.06-.4.39.51,3.06-.15,3.84-.32.38-2.01.19-2.72.73-6.82,5.16-6.07,6.02-10.09,11.99-1.48,2.21-9.12,7.24-10.73,9.74-5.49,8.54-9.78,22.73-12.39,32.09-1.2,4.32-3.17,7.67-1.91,12.91.18.76,1.79.61,1.96,1.37,2.42,10.59,1.82,20.05,6.07,30.59,1.84,4.57,10.24,17.36,13.57,21.14,4.47,5.08,5.38,7.5,8.89,12.59.46.66,11.04,10.35,11.76,10.73,1.36.71,6.42.51,7.52,2.5.67,1.21-.09,3.17.22,3.79.05.09,1.27-.7,2.06-.42,8.39,3.07,18.28,10.47,26.78,14.3,1.56.7,3.62,2.02,3.85,2.07,2.01.46,4.44-.34,6.58.07.85.16,2.44,3.61,3.48,3.89,4.81,1.31,12.17,1.11,16.69,2.12,4.94,1.1,12.91,5.18,17.11,5.89,21.19,3.57,64.58-1.22,84.71-6.17,6.56-1.61,21.59-5.6,25.96-8.08,6.32-3.59,11.53-4.39,18.04-7.71.61-.31.6-1.79,1.42-1.96,1.59-.33,3.86.5,5.12-.21.49-.28.69-2.22,1.58-2.88,6.26-4.6,15.32-7.04,21.37-12.91,4.31-4.18,9.1-7.37,14.02-11.96,1.42-1.32,3.82-1.94,5.24-3.53,1.13-1.27,1.77-4.12,2.16-4.37.89-.56,2.85.23,3.65-.29.73-.47.42-2.96,1.43-3.67.61-.43,2.27.07,2.59-.3.54-.62-.26-2.6.35-3.66,1.28-2.24,8.31-7.17,10.79-8.23.39,2.28-.76,3.05-1.96,4.54-53.12,65.81-154.65,91.38-234,63.92-93.1-32.22-130.41-129.35-34.35-187.27,18.3-11.03,58.23-26.57,79.31-26.19Z"/>
  <path class="cls-4" d="M546,507c4.64-.48,9.87-1.79,14.46-2.04,69.59-3.79,141.29,24.92,209.75,7.75,5.99-1.5,15.91-8.56,16.79.78,2.25,23.94-10.4,66.54-20.14,88.87-3.42,7.83-24.6,47.55-30.86,49.64l2.94-8.54c7.13-6.01,12.63-15.5,16.77-23.72,2.67-5.32,5.87-16.72,8.83-21.71.92-1.55,2.97-1.71,3.26-2.22.61-1.07.48-5.61,2.24-9.06,4.24-8.32,4.52-16.8,6.2-26.01.6-3.26,3.67-5.1,3.74-5.43.64-2.88-.27-7.05.26-10.56.46-3.04,3.63-6.95,3.7-7.37.54-3.26.57-16.62.14-19.93-.22-1.66-1.36-1.28-1.71-1.85-.55-.89-.27-2.33-.44-2.49-.54-.53-6.02.63-7.15.99-6.23,1.99-15.89,4.63-23.39,5.81-3.45.54-24.73,2.57-26.15,1.78-.47-.26.08-2.43-2.74-1.7-.39.1-.38,1.82-1.17,2-1.38.31-5.4.29-6.9.09-1.91-.25-.95-1.91-2.86-2.15-6.68-.84-15.45,1-22.13.16-1.91-.24-.95-1.92-2.87-2.16-10.65-1.34-22.07-.18-33.02-1.97-8.71-1.43-18-4-27.16-4.87-7.63-.73-16.87-1.88-25.84-3.13-5.73-.8-13.35.86-19.12.13-1.74-.22-1.6-3.29-7.89-2.02-12.27,2.48-16.02,1.11-27.54.94Z"/>
  <path class="cls-3" d="M344.35,284.65c-24.79-25.13-19.95-76.56,15.67-89.13,43.16-15.23,75.77,32.8,59.16,71.16-12.94,29.88-50.23,42.91-74.83,17.97ZM360.75,214.22c-14.54,2.42-12.33,27.37,6.5,22.53,12.39-3.18,7.81-24.91-6.5-22.53Z"/>
  <path class="cls-1" d="M229.71,272.34c.24.09.31,1.15.64,1.28,8.19,3.24,11.87,7.83,9.64,17.69-.18.8-1.53.75-1.99,1.41-1.25,1.79-.1,4.05-4.01,3.29l1.02,1.99c-4.63-1.97-6.25,4.16-10.34,3.78-4.44-.42-12.58-7.23-14.97-11.03-3.98-6.33.42-4.09,1.94-7.07.76-1.5,1.39-6.77,2.58-7.49.85-.51,2.5.16,3.53-.42.55-.31.82-2.01,1.83-2.65,2.21-1.41,7.68-1.68,10.14-.77ZM233.69,278.31c-5.83-5.4-19.26-1.5-19.62,7.27-.34,8.28,6.96,14.08,14.95,11.95s10.54-13.78,4.67-19.22Z"/>
  <path class="cls-6" d="M360.75,214.22c14.31-2.38,18.89,19.35,6.5,22.53-18.83,4.84-21.04-20.11-6.5-22.53Z"/>
  <path class="cls-3" d="M233.69,278.31c5.88,5.44,3.27,17.11-4.67,19.22s-15.29-3.68-14.95-11.95c.36-8.77,13.79-12.67,19.62-7.27Z"/>
</svg>